<?xml version="1.0" encoding="UTF-8"?><svg xmlns="http://www.w3.org/2000/svg" viewBox="0 0 1000 1000"><defs><style>.c{fill:#d89f01;}.d{fill:none;stroke:#936037;stroke-miterlimit:10;stroke-width:28.57px;}</style></defs><g id="a"/><g id="b"><g><path class="c" d="M406.67,338.35c6.55,11.34,6.55,25.32,0,36.66,6.56-11.34,18.66-18.33,31.75-18.33-13.09,0-25.2-6.99-31.75-18.33Zm0,286.63c6.55,11.35,6.55,25.33,0,36.67,6.55-11.34,18.66-18.33,31.75-18.33-13.09,0-25.2-6.99-31.75-18.34Zm248.23-143.31c6.55,11.34,6.55,25.32,0,36.66,6.55-11.34,18.66-18.33,31.76-18.33-13.1,0-25.21-6.99-31.76-18.33Zm-93.32,161.65c13.09,0,25.2,6.99,31.75,18.33-6.55-11.34-6.55-25.32,0-36.67-6.55,11.35-18.66,18.34-31.75,18.34Zm-216.48-161.65c-6.55,11.34-18.66,18.33-31.76,18.33,13.1,0,25.21,6.99,31.76,18.33-6.55-11.34-6.55-25.32,0-36.66Zm248.23-143.32c-6.55,11.34-18.66,18.33-31.75,18.33,13.09,0,25.19,6.99,31.75,18.33-6.55-11.34-6.55-25.32,0-36.66Z"/><path class="c" d="M687.81,176.03l-.38-.66-61.19-105.99c-13.3-23.03-38.07-37.33-64.66-37.33h-123.16c-26.59,0-51.36,14.3-64.66,37.33l-61.19,105.99-.38,.66c-6.65,11.52-9.98,24.43-9.97,37.34h11.12c13.1,0,25.21,6.98,31.76,18.33-6.55-11.35-6.55-25.32,0-36.67l5.56-9.63,56.01-97.02c6.55-11.34,18.66-18.33,31.75-18.33h123.16c13.09,0,25.2,6.99,31.75,18.33l56.01,97.02,5.56,9.63c6.55,11.35,6.55,25.32,0,36.67,6.55-11.35,18.66-18.33,31.76-18.33h11.12c0-12.91-3.32-25.82-9.97-37.34Zm-281.14,162.32c6.55,11.34,6.55,25.32,0,36.66,6.56-11.34,18.66-18.33,31.75-18.33-13.09,0-25.2-6.99-31.75-18.33Zm186.66,0c-6.55,11.34-18.66,18.33-31.75,18.33,13.09,0,25.19,6.99,31.75,18.33-6.55-11.34-6.55-25.32,0-36.66Zm-186.66,0c6.55,11.34,6.55,25.32,0,36.66,6.56-11.34,18.66-18.33,31.75-18.33-13.09,0-25.2-6.99-31.75-18.33Z"/><path class="c" d="M350.66,185.4c-11.18-6.46-24.02-10.03-37.32-10.03h-123.15c-26.59,0-51.37,14.3-64.66,37.33l-61.58,106.65c-13.29,23.03-13.29,51.64,0,74.66l61.19,105.99,.39,.67c6.65,11.51,16.16,20.84,27.34,27.3l5.57-9.64c6.55-11.34,18.65-18.33,31.75-18.33-13.1,0-25.2-6.99-31.75-18.33l-5.57-9.64-56.01-97.02c-6.55-11.34-6.55-25.32,0-36.66l61.58-106.65c6.55-11.35,18.65-18.33,31.75-18.33h123.15c13.1,0,25.21,6.98,31.76,18.33-6.55-11.35-6.55-25.32,0-36.67l5.56-9.63Zm-5.56,296.27c-6.55,11.34-18.66,18.33-31.76,18.33,13.1,0,25.21,6.99,31.76,18.33-6.55-11.34-6.55-25.32,0-36.66Zm61.57-143.32c6.55,11.34,6.55,25.32,0,36.66,6.56-11.34,18.66-18.33,31.75-18.33-13.09,0-25.2-6.99-31.75-18.33Zm-61.57,143.32c-6.55,11.34-18.66,18.33-31.76,18.33,13.1,0,25.21,6.99,31.76,18.33-6.55-11.34-6.55-25.32,0-36.66Zm0,0c-6.55,11.34-18.66,18.33-31.76,18.33,13.1,0,25.21,6.99,31.76,18.33-6.55-11.34-6.55-25.32,0-36.66Z"/><path class="c" d="M345.1,481.67c-6.55,11.34-18.66,18.33-31.76,18.33,13.1,0,25.21,6.99,31.76,18.33-6.55-11.34-6.55-25.32,0-36.66Zm0,323.3c-6.55-11.35-6.55-25.32,0-36.67-6.55,11.35-18.66,18.33-31.76,18.33h-123.15c-13.1,0-25.2-6.98-31.75-18.33l-61.58-106.65c-6.55-11.34-6.55-25.32,0-36.67l56.01-97.01,5.57-9.64c6.55-11.34,18.65-18.33,31.75-18.33-13.1,0-25.2-6.99-31.75-18.33l-5.57-9.64c-11.18,6.45-20.69,15.79-27.34,27.3l-.39,.67-61.19,105.98c-13.29,23.03-13.29,51.64,0,74.67l61.58,106.65c13.29,23.03,38.07,37.33,64.66,37.33h123.15c13.3,0,26.14-3.57,37.32-10.03l-5.56-9.63Zm61.57-179.99c6.55,11.35,6.55,25.33,0,36.67,6.55-11.34,18.66-18.33,31.75-18.33-13.09,0-25.2-6.99-31.75-18.34Z"/><path class="c" d="M406.67,624.98c6.55,11.35,6.55,25.33,0,36.67,6.55-11.34,18.66-18.33,31.75-18.33-13.09,0-25.2-6.99-31.75-18.34Zm186.66,0c-6.55,11.35-18.66,18.34-31.75,18.34,13.09,0,25.2,6.99,31.75,18.33-6.55-11.34-6.55-25.32,0-36.67Zm93.33,161.65c-13.1,0-25.21-6.98-31.76-18.33,6.55,11.35,6.55,25.32,0,36.67l-5.56,9.63-56.01,97.02c-6.55,11.34-18.66,18.33-31.75,18.33h-123.16c-13.09,0-25.2-6.99-31.75-18.33l-56.01-97.02-5.56-9.63c-6.55-11.35-6.55-25.32,0-36.67-6.55,11.35-18.66,18.33-31.76,18.33h-11.12c0,12.91,3.32,25.82,9.97,37.34l.38,.66,61.19,105.99c13.3,23.03,38.07,37.33,64.66,37.33h123.16c26.59,0,51.36-14.3,64.66-37.33l61.19-105.99,.38-.66c6.65-11.52,9.98-24.43,9.97-37.34h-11.12Zm-93.33-124.98c-6.55-11.34-6.55-25.32,0-36.67-6.55,11.35-18.66,18.34-31.75,18.34,13.09,0,25.2,6.99,31.75,18.33Zm-186.66-36.67c6.55,11.35,6.55,25.33,0,36.67,6.55-11.34,18.66-18.33,31.75-18.33-13.09,0-25.2-6.99-31.75-18.34Zm0,0c6.55,11.35,6.55,25.33,0,36.67,6.55-11.34,18.66-18.33,31.75-18.33-13.09,0-25.2-6.99-31.75-18.34Zm186.66,0c-6.55,11.35-18.66,18.34-31.75,18.34,13.09,0,25.2,6.99,31.75,18.33-6.55-11.34-6.55-25.32,0-36.67Zm-186.66,0c6.55,11.35,6.55,25.33,0,36.67,6.55-11.34,18.66-18.33,31.75-18.33-13.09,0-25.2-6.99-31.75-18.34Zm186.66,0c-6.55,11.35-18.66,18.34-31.75,18.34,13.09,0,25.2,6.99,31.75,18.33-6.55-11.34-6.55-25.32,0-36.67Zm-186.66,0c6.55,11.35,6.55,25.33,0,36.67,6.55-11.34,18.66-18.33,31.75-18.33-13.09,0-25.2-6.99-31.75-18.34Zm186.66,0c-6.55,11.35-18.66,18.34-31.75,18.34,13.09,0,25.2,6.99,31.75,18.33-6.55-11.34-6.55-25.32,0-36.67Z"/><path class="c" d="M654.9,481.67c6.55,11.34,6.55,25.32,0,36.66,6.55-11.34,18.66-18.33,31.76-18.33-13.1,0-25.21-6.99-31.76-18.33Zm0,0c6.55,11.34,6.55,25.32,0,36.66,6.55-11.34,18.66-18.33,31.76-18.33-13.1,0-25.21-6.99-31.76-18.33Zm-61.57,143.31c-6.55,11.35-18.66,18.34-31.75,18.34,13.09,0,25.2,6.99,31.75,18.33-6.55-11.34-6.55-25.32,0-36.67Zm61.57-143.31c6.55,11.34,6.55,25.32,0,36.66,6.55-11.34,18.66-18.33,31.76-18.33-13.1,0-25.21-6.99-31.76-18.33Zm281.15,124.32l-61.19-105.99-.39-.67c-6.65-11.51-16.16-20.85-27.34-27.3l-5.57,9.64c-6.55,11.34-18.65,18.33-31.75,18.33,13.1,0,25.2,6.99,31.75,18.33l5.57,9.64,56.01,97.01c6.55,11.35,6.55,25.33,0,36.67l-61.58,106.65c-6.55,11.35-18.65,18.33-31.75,18.33h-123.15c-13.1,0-25.21-6.98-31.76-18.33,6.55,11.35,6.55,25.32,0,36.67l-5.56,9.63c11.18,6.46,24.02,10.03,37.32,10.03h123.15c26.59,0,51.37-14.3,64.66-37.33l61.58-106.65c13.29-23.03,13.29-51.64,0-74.66Zm-249.39-105.99c-13.1,0-25.21-6.99-31.76-18.33,6.55,11.34,6.55,25.32,0,36.66,6.55-11.34,18.66-18.33,31.76-18.33Zm-31.76-18.33c6.55,11.34,6.55,25.32,0,36.66,6.55-11.34,18.66-18.33,31.76-18.33-13.1,0-25.21-6.99-31.76-18.33Zm0,0c6.55,11.34,6.55,25.32,0,36.66,6.55-11.34,18.66-18.33,31.76-18.33-13.1,0-25.21-6.99-31.76-18.33Zm0,0c6.55,11.34,6.55,25.32,0,36.66,6.55-11.34,18.66-18.33,31.76-18.33-13.1,0-25.21-6.99-31.76-18.33Z"/><path class="c" d="M593.33,338.35c-6.55,11.34-18.66,18.33-31.75,18.33,13.09,0,25.19,6.99,31.75,18.33-6.55-11.34-6.55-25.32,0-36.66Zm0,0c-6.55,11.34-18.66,18.33-31.75,18.33,13.09,0,25.19,6.99,31.75,18.33-6.55-11.34-6.55-25.32,0-36.66Zm342.72-19l-61.58-106.65c-13.29-23.03-38.07-37.33-64.66-37.33h-123.15c-13.3,0-26.14,3.57-37.32,10.03l5.56,9.63c6.55,11.35,6.55,25.32,0,36.67,6.55-11.35,18.66-18.33,31.76-18.33h123.15c13.1,0,25.2,6.98,31.75,18.33l61.58,106.65c6.55,11.34,6.55,25.32,0,36.66l-56.01,97.02-5.57,9.64c-6.55,11.34-18.65,18.33-31.75,18.33,13.1,0,25.2,6.99,31.75,18.33l5.57,9.64c11.18-6.46,20.69-15.79,27.34-27.3l.39-.67,61.19-105.99c13.29-23.02,13.29-51.63,0-74.66Zm-281.15,162.32c6.55,11.34,6.55,25.32,0,36.66,6.55-11.34,18.66-18.33,31.76-18.33-13.1,0-25.21-6.99-31.76-18.33Zm-93.32-124.99c13.09,0,25.19,6.99,31.75,18.33-6.55-11.34-6.55-25.32,0-36.66-6.55,11.34-18.66,18.33-31.75,18.33Zm31.75-18.33c-6.55,11.34-18.66,18.33-31.75,18.33,13.09,0,25.19,6.99,31.75,18.33-6.55-11.34-6.55-25.32,0-36.66Zm0,0c-6.55,11.34-18.66,18.33-31.75,18.33,13.09,0,25.19,6.99,31.75,18.33-6.55-11.34-6.55-25.32,0-36.66Zm0,0c-6.55,11.34-18.66,18.33-31.75,18.33,13.09,0,25.19,6.99,31.75,18.33-6.55-11.34-6.55-25.32,0-36.66Z"/></g><g><path class="d" d="M561.58,356.68h-123.15c-13.1,0-25.2,6.99-31.75,18.33l-61.58,106.65c-6.55,11.34-6.55,25.32,0,36.66l61.58,106.65c6.55,11.34,18.65,18.33,31.75,18.33h123.15c13.1,0,25.2-6.99,31.75-18.33l61.58-106.65c6.55-11.34,6.55-25.32,0-36.66l-61.58-106.65c-6.55-11.34-18.65-18.33-31.75-18.33Z"/><path class="d" d="M561.58,70.05h-123.15c-13.1,0-25.2,6.99-31.75,18.33l-61.58,106.65c-6.55,11.34-6.55,25.32,0,36.66l61.58,106.65c6.55,11.34,18.65,18.33,31.75,18.33h123.15c13.1,0,25.2-6.99,31.75-18.33l61.58-106.65c6.55-11.34,6.55-25.32,0-36.66l-61.58-106.65c-6.55-11.34-18.65-18.33-31.75-18.33Z"/><path class="d" d="M158.44,231.7l-61.58,106.65c-6.55,11.34-6.55,25.32,0,36.66l61.58,106.65c6.55,11.34,18.65,18.33,31.75,18.33h123.15c13.1,0,25.2-6.99,31.75-18.33l61.58-106.65c6.55-11.34,6.55-25.32,0-36.66l-61.58-106.65c-6.55-11.34-18.65-18.33-31.75-18.33h-123.15c-13.1,0-25.2,6.99-31.75,18.33Z"/><path class="d" d="M96.86,661.65l61.58,106.65c6.55,11.34,18.65,18.33,31.75,18.33h123.15c13.1,0,25.2-6.99,31.75-18.33l61.58-106.65c6.55-11.34,6.55-25.32,0-36.66l-61.58-106.65c-6.55-11.34-18.65-18.33-31.75-18.33h-123.15c-13.1,0-25.2,6.99-31.75,18.33l-61.58,106.65c-6.55,11.34-6.55,25.32,0,36.66Z"/><path class="d" d="M438.42,929.95h123.15c13.1,0,25.2-6.99,31.75-18.33l61.58-106.65c6.55-11.34,6.55-25.32,0-36.66l-61.58-106.65c-6.55-11.34-18.65-18.33-31.75-18.33h-123.15c-13.1,0-25.2,6.99-31.75,18.33l-61.58,106.65c-6.55,11.34-6.55,25.32,0,36.66l61.58,106.65c6.55,11.34,18.65,18.33,31.75,18.33Z"/><path class="d" d="M841.56,768.3l61.58-106.65c6.55-11.34,6.55-25.32,0-36.66l-61.58-106.65c-6.55-11.34-18.65-18.33-31.75-18.33h-123.15c-13.1,0-25.2,6.99-31.75,18.33l-61.58,106.65c-6.55,11.34-6.55,25.32,0,36.66l61.58,106.65c6.55,11.34,18.65,18.33,31.75,18.33h123.15c13.1,0,25.2-6.99,31.75-18.33Z"/><path class="d" d="M903.14,338.35l-61.58-106.65c-6.55-11.34-18.65-18.33-31.75-18.33h-123.15c-13.1,0-25.2,6.99-31.75,18.33l-61.58,106.65c-6.55,11.34-6.55,25.32,0,36.66l61.58,106.65c6.55,11.34,18.65,18.33,31.75,18.33h123.15c13.1,0,25.2-6.99,31.75-18.33l61.58-106.65c6.55-11.34,6.55-25.32,0-36.66Z"/></g></g></svg>